<svg width="65" height="63" viewBox="0 0 65 63" fill="none" xmlns="http://www.w3.org/2000/svg">
<path d="M32.5 30.2795C28.0312 30.2795 24.375 28.8665 21.5312 26.0404C18.6875 23.2143 17.2656 19.5807 17.2656 15.1397C17.2656 10.6988 18.6875 7.06522 21.5312 4.23913C24.375 1.41304 28.0312 0 32.5 0C36.9688 0 40.625 1.41304 43.4688 4.23913C46.3125 7.06522 47.7344 10.6988 47.7344 15.1397C47.7344 19.5807 46.3125 23.2143 43.4688 26.0404C40.625 28.8665 36.9688 30.2795 32.5 30.2795ZM0 62.6786V53.191C0 50.634 0.643229 48.4472 1.92969 46.6304C3.21615 44.8136 4.875 43.4343 6.90625 42.4922C11.4427 40.4736 15.793 38.9596 19.957 37.9503C24.1211 36.941 28.3021 36.4363 32.5 36.4363C36.6979 36.4363 40.862 36.9578 44.9922 38.0008C49.1224 39.0437 53.4557 40.5409 57.9922 42.4922C60.0911 43.4343 61.7839 44.8136 63.0703 46.6304C64.3568 48.4472 65 50.634 65 53.191V62.6786H0ZM6.09375 56.6227H58.9062V53.191C58.9062 52.1144 58.5846 51.0882 57.9414 50.1126C57.2982 49.1369 56.5026 48.4135 55.5547 47.9425C51.2214 45.8566 47.2604 44.4268 43.6719 43.6529C40.0833 42.8791 36.3594 42.4922 32.5 42.4922C28.6406 42.4922 24.8828 42.8791 21.2266 43.6529C17.5703 44.4268 13.6094 45.8566 9.34375 47.9425C8.39583 48.4135 7.61719 49.1369 7.00781 50.1126C6.39844 51.0882 6.09375 52.1144 6.09375 53.191V56.6227ZM32.5 24.2236C35.1406 24.2236 37.3242 23.3657 39.0508 21.6498C40.7773 19.934 41.6406 17.764 41.6406 15.1397C41.6406 12.5155 40.7773 10.3455 39.0508 8.62966C37.3242 6.91382 35.1406 6.0559 32.5 6.0559C29.8594 6.0559 27.6758 6.91382 25.9492 8.62966C24.2227 10.3455 23.3594 12.5155 23.3594 15.1397C23.3594 17.764 24.2227 19.934 25.9492 21.6498C27.6758 23.3657 29.8594 24.2236 32.5 24.2236Z" fill="#F4FEFD"/>
</svg>
