<svg width="170" height="124" viewBox="0 0 170 124" fill="none" xmlns="http://www.w3.org/2000/svg">
<g clip-path="url(#clip0_365_219)">
<path d="M153.212 43.6163H153.031C151.069 43.6141 149.188 42.8348 147.8 41.4495C146.413 40.0642 145.632 38.1859 145.63 36.2267V33.7035H123.607V33.343H145.991V36.2267C145.993 38.0591 146.711 39.8184 147.992 41.1306C149.273 42.4428 151.016 43.2044 152.851 43.2535V33.343H158.086C158.804 33.3422 159.492 33.0571 160 32.5503C160.507 32.0435 160.793 31.3563 160.794 30.6395V3.06395C160.793 2.34719 160.507 1.66002 160 1.15319C159.492 0.646368 158.804 0.361276 158.086 0.360465H89.1284C88.4105 0.361276 87.7222 0.646368 87.2146 1.15319C86.707 1.66002 86.4214 2.34719 86.4206 3.06395V23.0698H86.0596V3.06395C86.0605 2.25162 86.3841 1.47283 86.9594 0.898421C87.5347 0.324016 88.3147 0.000914476 89.1284 0H158.086C158.899 0.000914476 159.68 0.324016 160.255 0.898421C160.83 1.47283 161.154 2.25162 161.155 3.06395V30.6395C161.154 31.4519 160.83 32.2307 160.255 32.8051C159.68 33.3795 158.899 33.7026 158.086 33.7035H153.212V43.6163Z" fill="#CCCCCC"/>
<path d="M146.71 9.10356C146.687 8.52206 146.44 7.97191 146.02 7.56839C145.6 7.16487 145.04 6.9393 144.457 6.93896H102.757C102.159 6.93896 101.585 7.17632 101.162 7.59883C100.739 8.02133 100.501 8.59436 100.501 9.19187C100.501 9.78938 100.739 10.3624 101.162 10.7849C101.585 11.2074 102.159 11.4448 102.757 11.4448H144.457C145.055 11.444 145.628 11.2063 146.051 10.784C146.474 10.3617 146.712 9.78913 146.713 9.19187C146.714 9.16239 146.713 9.13289 146.71 9.10356Z" fill="#CCCCCC"/>
<path d="M146.71 16.6733C146.687 16.0918 146.44 15.5417 146.02 15.1382C145.6 14.7346 145.04 14.5091 144.457 14.5087H102.757C102.159 14.5087 101.585 14.7461 101.162 15.1686C100.739 15.5911 100.501 16.1641 100.501 16.7616C100.501 17.3591 100.739 17.9322 101.162 18.3547C101.585 18.7772 102.159 19.0145 102.757 19.0145H144.457C145.055 19.0137 145.628 18.7761 146.051 18.3538C146.474 17.9314 146.712 17.3589 146.713 16.7616C146.714 16.7322 146.713 16.7027 146.71 16.6733Z" fill="#CCCCCC"/>
<path d="M146.71 24.2431C146.687 23.6616 146.44 23.1114 146.02 22.7079C145.6 22.3044 145.04 22.0788 144.457 22.0785H102.757C102.427 22.0785 102.1 22.1512 101.8 22.2913C101.501 22.4315 101.236 22.6357 101.024 22.8895C100.932 23.0019 100.849 23.1225 100.779 23.25H120.719C121.437 23.2509 122.125 23.536 122.633 24.0428C123.14 24.5496 123.426 25.2367 123.427 25.9535V26.5843H144.457C145.055 26.5835 145.628 26.3459 146.051 25.9235C146.474 25.5012 146.712 24.9287 146.713 24.3314C146.714 24.3019 146.713 24.2724 146.71 24.2431Z" fill="#CCCCCC"/>
<path d="M4.42582 123.406C4.52402 123.487 4.62226 123.564 4.7228 123.64H29.5266C29.7113 123.564 29.8953 123.486 30.0784 123.406C32.697 122.268 35.1342 120.753 37.3124 118.909C38.7587 117.686 40.0893 116.423 41.0539 115.239C42.3996 113.587 43.639 111.787 44.2155 109.736C44.7907 107.685 44.6189 105.334 43.3339 103.633C42.936 103.11 42.4468 102.663 41.8899 102.313C41.7975 102.254 41.704 102.198 41.6081 102.146C40.0095 101.287 38.1446 101.063 36.3875 101.519C33.9029 102.16 31.8381 103.949 30.3649 106.048C28.8917 108.146 27.9353 110.556 26.9929 112.938C26.0365 108.685 23.1403 104.876 19.2281 102.94C15.3171 101.003 10.4578 101.026 6.62981 103.124C5.42534 103.788 4.33733 104.644 3.40858 105.657C3.31626 105.757 3.22617 105.858 3.13734 105.961C1.27013 108.119 0.102058 110.884 0.00620197 113.734C-0.0368947 115.575 0.338394 117.402 1.10387 119.077C1.86935 120.752 3.00511 122.232 4.42582 123.406Z" fill="#F2F2F2"/>
<path d="M28.5351 123.64H28.8859C28.8905 123.561 28.8964 123.484 28.9034 123.406C29.026 121.879 29.2827 120.366 29.6704 118.884C30.56 115.5 32.0796 112.314 34.1497 109.491C36.2139 106.659 38.8161 104.261 41.808 102.433C41.8299 102.42 41.8487 102.403 41.8629 102.382C41.877 102.361 41.8863 102.338 41.8899 102.313C41.8956 102.28 41.8919 102.247 41.8793 102.216C41.8666 102.185 41.8455 102.159 41.8185 102.14C41.7914 102.121 41.7594 102.11 41.7263 102.108C41.6932 102.107 41.6603 102.114 41.6315 102.131C41.6234 102.135 41.6156 102.14 41.6081 102.146C39.913 103.177 38.3395 104.396 36.9172 105.779C34.3731 108.257 32.3216 111.193 30.8712 114.432C29.5916 117.27 28.8078 120.305 28.5538 123.406C28.5467 123.484 28.5409 123.562 28.5351 123.64Z" fill="white"/>
<path d="M3.13735 105.961C3.13989 105.962 3.14267 105.963 3.14552 105.963C3.40157 106.01 3.65882 106.059 3.91373 106.111C6.00606 106.54 8.05426 107.161 10.0322 107.966C12.005 108.77 13.9027 109.747 15.703 110.885C17.5055 112.022 19.2054 113.314 20.7832 114.746C22.361 116.177 23.8083 117.744 25.1081 119.43C26.0796 120.693 26.9629 122.022 27.7517 123.406C27.7961 123.483 27.8394 123.561 27.8827 123.64H28.2837C28.2416 123.561 28.1983 123.483 28.1539 123.406C27.1996 121.71 26.1053 120.096 24.8825 118.581C23.5302 116.905 22.0312 115.352 20.4032 113.941C18.7856 112.538 17.0494 111.277 15.2142 110.173C13.3713 109.064 11.4338 108.12 9.42424 107.352C7.47411 106.608 5.46074 106.041 3.40859 105.657C3.35132 105.647 3.29521 105.636 3.23789 105.626C3.01929 105.586 2.92571 105.915 3.13735 105.961Z" fill="white"/>
<path d="M10.1122 118.147C12.5548 117.812 15.0353 117.867 17.4602 118.312C19.878 118.754 22.2122 119.569 24.3788 120.727C25.5963 121.381 26.7519 122.143 27.8313 123.005C28.0077 123.146 27.7581 123.392 27.5833 123.253C25.6893 121.748 23.5661 120.557 21.2944 119.723C19.0408 118.891 16.6719 118.411 14.2716 118.301C12.9134 118.238 11.5524 118.3 10.2055 118.485C10.1607 118.495 10.1135 118.489 10.0734 118.466C10.0334 118.443 10.0035 118.406 9.98972 118.362C9.97764 118.318 9.98372 118.27 10.0067 118.23C10.0296 118.189 10.0675 118.16 10.1122 118.147Z" fill="white"/>
<path d="M120.538 23.25H51.5808C50.7673 23.2511 49.9874 23.5743 49.4121 24.1487C48.8369 24.723 48.5132 25.5017 48.512 26.314V53.8895C48.5132 54.7018 48.8369 55.4805 49.4121 56.0548C49.9874 56.6292 50.7673 56.9523 51.5808 56.9535H56.4548V66.8663H56.6353C58.5976 66.8642 60.4789 66.085 61.8664 64.6997C63.254 63.3143 64.0344 61.4359 64.0365 59.4767V56.9535H120.538C121.352 56.9523 122.132 56.6292 122.707 56.0548C123.282 55.4805 123.606 54.7018 123.607 53.8895V26.314C123.606 25.5017 123.282 24.723 122.707 24.1487C122.132 23.5743 121.352 23.2511 120.538 23.25ZM123.246 53.8895C123.245 54.6063 122.96 55.2934 122.452 55.8002C121.944 56.307 121.256 56.5922 120.538 56.593H63.6755V59.4767C63.673 61.3091 62.955 63.0682 61.6741 64.3804C60.3932 65.6926 58.6503 66.4544 56.8158 66.504V56.593H51.5808C50.8629 56.5922 50.1747 56.307 49.6671 55.8002C49.1595 55.2934 48.8739 54.6063 48.8731 53.8895V26.314C48.8739 25.5972 49.1595 24.9101 49.6671 24.4033C50.1747 23.8964 50.8629 23.6113 51.5808 23.6105H120.538C121.256 23.6113 121.944 23.8964 122.452 24.4033C122.96 24.9101 123.245 25.5972 123.246 26.314V53.8895Z" fill="#3F3D56"/>
<path d="M106.909 30.189H65.2099C64.627 30.1893 64.0669 30.4149 63.6469 30.8184C63.2269 31.2219 62.9797 31.7721 62.957 32.3536C62.954 32.3829 62.9528 32.4124 62.9534 32.4419C62.9542 33.0391 63.1922 33.6117 63.6152 34.034C64.0382 34.4563 64.6117 34.6939 65.2099 34.6948H106.909C107.508 34.6948 108.082 34.4574 108.505 34.0349C108.928 33.6124 109.166 33.0394 109.166 32.4419C109.166 31.8444 108.928 31.2713 108.505 30.8488C108.082 30.4263 107.508 30.189 106.909 30.189Z" fill="#16BD9F"/>
<path d="M106.909 37.7587H65.2099C64.627 37.7591 64.0669 37.9846 63.6469 38.3882C63.2269 38.7917 62.9797 39.3418 62.957 39.9233C62.954 39.9527 62.9528 39.9822 62.9534 40.0116C62.9542 40.6089 63.1922 41.1814 63.6152 41.6038C64.0382 42.0261 64.6117 42.2637 65.2099 42.2645H106.909C107.508 42.2645 108.082 42.0272 108.505 41.6047C108.928 41.1822 109.166 40.6091 109.166 40.0116C109.166 39.4141 108.928 38.8411 108.505 38.4186C108.082 37.9961 107.508 37.7587 106.909 37.7587Z" fill="#16BD9F"/>
<path d="M106.909 45.3285H65.2099C64.627 45.3288 64.0669 45.5544 63.6469 45.9579C63.2269 46.3614 62.9797 46.9116 62.957 47.4931C62.954 47.5224 62.9528 47.5519 62.9534 47.5814C62.9542 48.1786 63.1922 48.7512 63.6152 49.1735C64.0382 49.5958 64.6117 49.8335 65.2099 49.8343H106.909C107.508 49.8343 108.082 49.5969 108.505 49.1744C108.928 48.7519 109.166 48.1789 109.166 47.5814C109.166 46.9839 108.928 46.4109 108.505 45.9884C108.082 45.5659 107.508 45.3285 106.909 45.3285Z" fill="#16BD9F"/>
<path d="M40.5669 85.1995C40.4856 85.1995 40.4044 85.1944 40.3238 85.1843C40.046 85.1503 39.7786 85.058 39.539 84.9136C39.2995 84.7692 39.0932 84.5759 38.9336 84.3464C38.7741 84.1168 38.665 83.8562 38.6134 83.5816C38.5618 83.307 38.5688 83.0246 38.6342 82.753C38.6496 82.6899 38.6683 82.6276 38.6902 82.5665L32.6673 74.8681C32.4022 74.5265 32.2544 74.1086 32.2459 73.6765C32.2375 73.2444 32.3688 72.8211 32.6203 72.4694L34.73 69.5439L37.4875 71.6679L36.3797 73.568L40.7668 81.2456C40.855 81.2538 40.9425 81.268 41.0287 81.2882C41.5014 81.4016 41.916 81.6842 42.194 82.0823C42.472 82.4805 42.5941 82.9666 42.5372 83.4486C42.4803 83.9306 42.2483 84.3751 41.8852 84.6978C41.522 85.0204 41.053 85.1989 40.5669 85.1995Z" fill="#A0616A"/>
<path d="M50.9901 121.678L53.2032 121.678L54.256 113.155L50.9897 113.155L50.9901 121.678Z" fill="#A0616A"/>
<path d="M57.4714 123.73L50.5159 123.73L50.5158 121.047L54.7839 121.047C55.1368 121.047 55.4863 121.116 55.8123 121.251C56.1384 121.386 56.4346 121.583 56.6842 121.832C56.9337 122.082 57.1317 122.377 57.2668 122.703C57.4018 123.028 57.4714 123.377 57.4714 123.73Z" fill="#2F2E41"/>
<path d="M32.7579 121.678L34.971 121.678L36.0238 113.155L32.7575 113.155L32.7579 121.678Z" fill="#A0616A"/>
<path d="M39.2391 123.73L32.2837 123.73L32.2836 121.047L36.5517 121.047C36.9046 121.047 37.254 121.116 37.5801 121.251C37.9061 121.386 38.2024 121.583 38.4519 121.832C38.7015 122.082 38.8995 122.377 39.0345 122.703C39.1696 123.028 39.2391 123.377 39.2391 123.73Z" fill="#2F2E41"/>
<path d="M34.1162 69.9589L39.0849 71.844L40.298 68.4797C40.459 68.033 40.4568 67.5437 40.2915 67.0985C40.1263 66.6533 39.8088 66.2807 39.395 66.0466C38.9765 65.8098 38.4869 65.7303 38.0148 65.8223C37.5426 65.9143 37.119 66.1719 36.8204 66.5485L34.1162 69.9589Z" fill="#16BD9F"/>
<path d="M50.5967 114.798C50.3983 114.798 50.2056 114.732 50.049 114.61C49.8924 114.489 49.7807 114.319 49.7316 114.127C47.2539 104.662 44.7381 99.9187 42.0404 94.4334C41.9729 94.2966 41.8635 94.1849 41.7281 94.1145C41.5927 94.0441 41.4383 94.0186 41.2874 94.0419C41.1365 94.0651 40.9969 94.1358 40.889 94.2437C40.7811 94.3516 40.7105 94.491 40.6875 94.6417L37.3436 113.935C37.3102 114.151 37.1996 114.346 37.0324 114.486C36.8652 114.626 36.6527 114.701 36.4347 114.696L31.4702 114.575C31.3497 114.572 31.231 114.546 31.1213 114.496C31.0115 114.446 30.9129 114.375 30.8316 114.286C30.7456 114.201 30.6799 114.098 30.6391 113.984C30.5984 113.871 30.5838 113.749 30.5962 113.629C32.8448 98.8238 34.6151 85.4224 38.0196 81.3341C38.114 81.2448 38.2222 81.1714 38.34 81.1166L38.2367 81.1008C38.2072 81.0962 38.1286 81.0842 38.1276 81.0053L38.1266 80.929L38.2043 80.9143C38.3283 80.9099 38.452 80.9285 38.5692 80.9691L46.3395 82.1631C46.5547 82.1962 46.7506 82.3063 46.8905 82.4729C47.0305 82.6395 47.105 82.8512 47.1001 83.0686C47.5226 85.0416 48.1699 88.0198 48.2278 88.1665C52.3736 96.0357 53.9823 102.232 55.6543 112.814C55.689 113.038 55.6373 113.267 55.5096 113.455C55.382 113.643 55.1878 113.776 54.9662 113.826L50.7991 114.775C50.7327 114.791 50.6648 114.798 50.5967 114.798Z" fill="#2F2E41"/>
<path d="M46.2361 83.4533C46.1664 83.4533 46.0969 83.4451 46.0291 83.429L38.3791 81.6121C38.2618 81.5847 38.1514 81.5337 38.0547 81.4621C37.958 81.3905 37.8769 81.2999 37.8166 81.1959C37.7544 81.0883 37.7146 80.9692 37.6996 80.8458C37.6846 80.7225 37.6947 80.5973 37.7293 80.478C38.5542 77.6225 37.4725 74.0828 36.1807 70.683C36.0164 69.6888 36.1773 68.6683 36.6397 67.7726C37.102 66.877 37.8412 66.1539 38.7475 65.7107L38.7683 65.7007L42.7847 65.9031C43.4442 66.0757 44.056 66.3954 44.5739 66.838C45.0919 67.2807 45.5027 67.8348 45.7753 68.4587C47.3234 72.0761 47.7667 76.7179 47.1303 82.6493C47.1069 82.8698 47.0026 83.074 46.8376 83.2224C46.6725 83.3708 46.4583 83.4531 46.2361 83.4533Z" fill="#16BD9F"/>
<path d="M47.2653 75.196C46.857 75.1969 46.4585 75.0705 46.1256 74.8343L43.1626 72.7258L45.2766 69.9624L47.185 71.0594L54.8536 66.6424C54.8613 66.5543 54.8751 66.4668 54.895 66.3807C54.9849 65.999 55.1861 65.6524 55.4732 65.3849C55.7603 65.1174 56.1205 64.9409 56.5081 64.8777C56.8957 64.8146 57.2933 64.8676 57.6508 65.03C58.0082 65.1925 58.3093 65.4572 58.5161 65.7905C58.7229 66.1239 58.826 66.511 58.8125 66.9029C58.7989 67.2947 58.6693 67.6738 58.4399 67.9921C58.2106 68.3104 57.8919 68.5537 57.5241 68.6911C57.1563 68.8286 56.7559 68.8541 56.3736 68.7643C56.3103 68.7492 56.2479 68.7308 56.1865 68.7093L48.4831 74.777C48.1359 75.0493 47.7069 75.1969 47.2653 75.196Z" fill="#A0616A"/>
<path d="M42.2226 73.5863L46.618 70.6021L44.5523 67.6811C44.278 67.2933 43.8753 67.0147 43.4151 66.8946C42.955 66.7746 42.4673 66.8208 42.038 67.0251C41.6037 67.2317 41.2578 67.5866 41.0626 68.0256C40.8675 68.4647 40.836 68.9589 40.9739 69.419L42.2226 73.5863Z" fill="#16BD9F"/>
<path d="M40.1087 64.2029C42.5574 64.2029 44.5424 62.221 44.5424 59.7762C44.5424 57.3314 42.5574 55.3495 40.1087 55.3495C37.6601 55.3495 35.675 57.3314 35.675 59.7762C35.675 62.221 37.6601 64.2029 40.1087 64.2029Z" fill="#A0616A"/>
<path d="M40.515 64.3053C39.8495 64.3024 39.3362 63.6028 39.366 62.9391C39.3958 62.2754 39.8423 61.6914 40.3803 61.3003C40.9182 60.9091 41.5491 60.6709 42.149 60.3834C42.7489 60.0958 43.3435 59.7371 43.7139 59.1851C43.9377 58.8238 44.0712 58.4142 44.1034 57.9906C44.1355 57.5671 44.0653 57.142 43.8986 56.7512C43.5539 55.9695 42.9621 55.3223 42.2138 54.9085C41.1023 54.2588 39.7864 54.0511 38.5283 54.3267C37.2702 54.6022 36.1622 55.3409 35.4251 56.3955L34.6655 58.4605C33.8915 59.3898 33.7687 60.7699 34.2445 61.8813C34.7203 62.9927 35.7334 63.8288 36.8766 64.2264C38.0365 64.5985 39.2782 64.6357 40.4583 64.3336" fill="#2F2E41"/>
<path d="M35.7243 57.6774C35.4206 57.2098 35.0063 56.824 34.5179 56.554C34.0296 56.2839 33.4822 56.138 32.9241 56.1291C32.3659 56.1201 31.8142 56.2484 31.3174 56.5027C30.8206 56.7569 30.3942 57.1292 30.0755 57.5868C29.5422 58.3529 29.3485 59.2972 28.9818 60.1553C28.3176 61.6921 27.1096 62.9306 25.5886 63.6343C26.9204 63.8681 28.2471 63.1917 29.3118 62.3595C30.3765 61.5273 31.3128 60.5115 32.5052 59.8749C33.4433 59.3759 34.4971 59.1342 35.5592 59.1746" fill="#2F2E41"/>
<path d="M73.0432 124H4.26615C4.21827 124 4.17236 123.981 4.1385 123.947C4.10465 123.913 4.08563 123.868 4.08563 123.82C4.08563 123.772 4.10465 123.726 4.1385 123.692C4.17236 123.659 4.21827 123.64 4.26615 123.64H73.0432C73.091 123.64 73.1369 123.659 73.1708 123.692C73.2047 123.726 73.2237 123.772 73.2237 123.82C73.2237 123.868 73.2047 123.913 73.1708 123.947C73.1369 123.981 73.091 124 73.0432 124Z" fill="#3F3D56"/>
<path d="M159.349 65.9651C165.232 65.9651 170 61.2042 170 55.3314C170 49.4586 165.232 44.6977 159.349 44.6977C153.467 44.6977 148.699 49.4586 148.699 55.3314C148.699 61.2042 153.467 65.9651 159.349 65.9651Z" fill="#E6E6E6"/>
<path d="M160.365 62.9106C159.931 62.8985 159.392 62.8834 158.976 62.5802C158.852 62.4862 158.75 62.3663 158.678 62.2289C158.605 62.0915 158.564 61.9399 158.556 61.7848C158.549 61.6745 158.567 61.5641 158.609 61.462C158.651 61.3599 158.717 61.269 158.8 61.1963C158.924 61.104 159.069 61.044 159.222 61.022C159.375 61.0001 159.531 61.0167 159.676 61.0704L159.322 58.4865L159.582 58.451L159.998 61.4886L159.781 61.3891C159.53 61.2739 159.184 61.2153 158.97 61.3964C158.917 61.4437 158.876 61.5025 158.85 61.5683C158.823 61.634 158.813 61.705 158.818 61.7755C158.825 61.891 158.856 62.0037 158.91 62.1061C158.964 62.2084 159.039 62.298 159.131 62.3686C159.454 62.6047 159.884 62.6351 160.373 62.6488L160.365 62.9106Z" fill="#3F3D56"/>
<path d="M158.037 58.7094H156.623V58.9713H158.037V58.7094Z" fill="#3F3D56"/>
<path d="M162.497 58.7094H161.084V58.9713H162.497V58.7094Z" fill="#3F3D56"/>
<path d="M154.168 55.0918C153.03 54.9623 152.149 53.8736 152.052 52.7691C151.937 51.455 152.703 50.2069 153.755 49.4695C154.855 48.6984 156.225 48.3764 157.55 48.3055C160.136 48.177 162.678 49.0134 164.68 50.6519C165.674 51.4756 166.601 52.5249 166.953 53.7922C167.258 54.8929 167.01 56.1398 166.123 56.9106C165.904 57.0995 165.648 57.241 165.371 57.3261C165.094 57.4112 164.803 57.4381 164.515 57.4051C163.827 57.3337 163.192 56.9726 162.643 56.5737C161.574 55.7978 160.696 54.717 159.394 54.3115C158.44 54.0142 157.201 54.2759 156.617 55.138C156.485 55.3353 156.399 55.5601 156.366 55.7953C156.354 55.8455 156.362 55.8984 156.387 55.9433C156.413 55.9881 156.454 56.0216 156.504 56.037C156.554 56.0506 156.608 56.0437 156.653 56.018C156.698 55.9924 156.732 55.9499 156.746 55.8998C156.899 54.814 158.236 54.4088 159.174 54.6568C160.543 55.0184 161.461 56.2373 162.583 57.0117C163.164 57.4443 163.849 57.7171 164.569 57.8029C165.193 57.8518 165.812 57.6618 166.301 57.2716C167.26 56.5156 167.627 55.2152 167.415 54.0444C167.169 52.6887 166.255 51.5267 165.252 50.6271C163.219 48.8226 160.58 47.8492 157.86 47.9007C156.473 47.9325 155.026 48.2185 153.831 48.9505C152.672 49.6605 151.776 50.8485 151.658 52.2293C151.555 53.4447 152.209 54.716 153.33 55.2485C153.594 55.3735 153.877 55.4534 154.168 55.4848C154.419 55.5134 154.417 55.1202 154.168 55.0918Z" fill="#3F3D56"/>
</g>
<defs>
<clipPath id="clip0_365_219">
<rect width="170" height="124" fill="white"/>
</clipPath>
</defs>
</svg>
