<svg width="100" height="100" viewBox="0 0 100 100" fill="none" xmlns="http://www.w3.org/2000/svg">
<circle cx="50" cy="50" r="50" fill="#F4FEFD"/>
<g clip-path="url(#clip0_432_122)">
<path d="M55.8373 72.7859L58.2172 57.9117L42.1531 51.3671L39.7732 73.9758L55.8373 72.7859Z" fill="#D7AAAA"/>
<path d="M71.9825 94.7678C70.6033 95.4402 69.1978 96.0472 67.7713 96.5857C64.9183 97.6653 61.9733 98.4799 58.9522 99.0237C55.9994 99.5569 52.9677 99.8275 49.9361 99.8275C45.8404 99.8275 41.7684 99.3362 37.8305 98.3642C36.2884 97.986 34.7331 97.5237 33.2042 96.9849C33.0439 96.9272 32.8811 96.8695 32.7208 96.8115C30.8241 96.1234 28.9588 95.3168 27.1646 94.4053C26.9228 94.2845 26.6812 94.1608 26.4395 94.0295C26.1715 93.893 25.9062 93.7485 25.6382 93.5987C25.2967 93.4122 24.9578 93.2178 24.6189 93.0207C23.484 92.3639 22.3675 91.6546 21.3009 90.9165L21.23 90.8693C21.1669 90.8246 21.1039 90.7826 21.0435 90.7379C21.0828 90.5304 21.1197 90.341 21.1538 90.173C21.2851 89.5137 21.3718 89.1512 21.3718 89.1512L28.5647 74.2923L30.5692 70.1521L31.5465 69.75L38.9286 66.7158H56.9714L62.6642 69.0697C62.6642 69.0697 62.6932 69.1774 62.7509 69.385C63.3184 71.421 66.6285 82.9801 71.7645 94.2896C71.8353 94.4471 71.909 94.6075 71.9825 94.7678Z" fill="#1B2223"/>
<path d="M51.7778 62.6932C60.8251 62.6932 68.1593 55.3589 68.1593 46.3117C68.1593 37.2644 60.8251 29.9301 51.7778 29.9301C42.7305 29.9301 35.3962 37.2644 35.3962 46.3117C35.3962 55.3589 42.7305 62.6932 51.7778 62.6932Z" fill="#D7AAAA"/>
<path d="M31.5751 69.609L31.5469 69.75L26.5525 93.4962L26.5093 93.703L26.4398 94.0301C26.171 93.8928 25.9059 93.7481 25.639 93.5996C25.2969 93.4116 24.9586 93.218 24.6183 93.0207C23.4849 92.3646 22.3683 91.6541 21.3007 90.9173L21.2292 90.8684C21.1672 90.8252 21.1033 90.7819 21.0431 90.7387C20.2274 90.1692 19.4322 89.5752 18.6559 88.9624C18.6503 88.9586 18.6465 88.9549 18.6409 88.9492C17.2555 87.8327 15.921 86.6316 14.6446 85.3552C13.8213 84.5319 13.03 83.6842 12.2725 82.8139L12.3871 82.3327L12.3984 82.2838L12.5413 81.671C13.8119 76.3045 18.1108 72.1861 23.5262 71.1485L30.7217 69.7707L31.5751 69.609Z" fill="#1B2223"/>
<path d="M82.5932 87.8243C80.4731 89.6292 78.2007 91.2634 75.8021 92.6978C75.5684 92.8397 75.3293 92.9787 75.0902 93.118C74.0709 93.7065 73.0332 94.2556 71.9824 94.7679C70.6031 95.4403 69.1977 96.0473 67.7712 96.5858L67.6608 96.0655L62.0205 69.2457L62.7508 69.385L70.0699 70.7878C75.4843 71.8256 79.7848 75.9448 81.0537 81.3118L82.4539 87.2412L82.5932 87.8243Z" fill="#1B2223"/>
<path d="M70.6425 50.6907C70.2169 52.2774 68.0759 59.368 62.5931 60.8601C61.5161 61.1543 58.9468 61.4932 59.6272 60.8601C59.7822 60.7156 59.9319 60.5738 60.0817 60.4345C66.032 54.8388 68.4594 51.4185 67.3508 43.8262C66.6467 38.9922 58.6289 34.6024 54.1182 34.1663C52.2162 33.9826 49.7888 34.626 48.1863 36.2838C45.5408 39.0158 45.9769 47.4017 44.511 52.3275C44.1169 53.6461 43.5889 54.718 42.8296 55.3668C42.3567 55.7714 42.0547 55.2565 41.8313 54.4132C41.3559 52.6215 41.2324 49.3405 40.5572 50.2676C38.6053 52.9552 40.4653 56.5175 41.0275 57.8915C41.1431 58.1727 41.2613 58.4431 41.3795 58.7007V58.7033C41.4478 58.8503 41.5187 58.9975 41.587 59.1368V59.1394C43.4627 62.9643 45.7168 64.333 47.7029 66.7158C48.4831 67.6484 49.2213 68.7334 49.8807 70.1836C50.3326 71.1767 50.6583 72.175 50.8817 73.1547C52.0191 78.0674 50.6689 82.5309 50.3037 83.7446C49.5392 86.2719 48.2257 90.6143 44.3718 93.0654C39.5326 96.1445 35.1166 93.4307 33.0044 96.3546C32.9781 96.3887 32.9544 96.4228 32.9308 96.457C32.852 96.5752 32.7811 96.6935 32.7206 96.8115C30.8239 96.1235 28.9587 95.3169 27.1644 94.4053C26.9227 94.2845 26.681 94.1608 26.4393 94.0295C26.1714 93.893 25.906 93.7486 25.6381 93.5987C25.6275 93.3938 25.617 93.189 25.6091 92.9815C25.4542 89.427 25.688 85.5205 26.5733 81.6245C27.1407 79.1367 27.703 76.6697 28.5646 74.2923C29.1268 72.7425 29.8151 71.2291 30.7214 69.7711C31.4465 68.5994 32.3082 67.4619 33.3537 66.369C35.6499 63.9705 37.6911 62.9697 38.0142 60.437C38.4765 56.8222 34.712 55.7347 33.3537 50.2676C32.4264 46.5294 31.457 41.1413 32.3975 37.5106C33.2855 34.0798 34.0578 31.1033 36.635 28.1871C37.255 27.4882 42.3437 22.6281 48.2388 21.8295C50.9552 21.4644 53.3774 24.9427 56.6612 25.6913C60.4363 26.5505 62.5984 27.0418 64.7106 28.6573C68.2808 31.3842 69.2869 35.4616 70.2195 39.2498C70.9499 42.2132 71.8957 46.0461 70.6425 50.6907Z" fill="#011416"/>
</g>
<defs>
<clipPath id="clip0_432_122">
<rect width="100" height="100" fill="white"/>
</clipPath>
</defs>
</svg>
