<svg width="201" height="121" viewBox="0 0 201 121" fill="none" xmlns="http://www.w3.org/2000/svg">
<g clip-path="url(#clip0_362_161)">
<path d="M173.764 49.9161H10.6601C9.96755 49.9161 9.30337 50.1921 8.81366 50.6835C8.32395 51.1748 8.04883 51.8412 8.04883 52.5361C8.04883 53.2309 8.32395 53.8973 8.81366 54.3887C9.30337 54.88 9.96755 55.156 10.6601 55.156H15.2801V117.834C15.2801 118.529 15.5552 119.195 16.0449 119.687C16.5346 120.178 17.1988 120.454 17.8913 120.454C18.5839 120.454 19.2481 120.178 19.7378 119.687C20.2275 119.195 20.5026 118.529 20.5026 117.834L20.5423 55.156H151.45L163.52 117.834C163.52 118.529 163.795 119.195 164.285 119.687C164.774 120.178 165.439 120.454 166.131 120.454C166.824 120.454 167.488 120.178 167.978 119.687C168.467 119.195 168.742 118.529 168.742 117.834L169.502 55.156H173.764C174.457 55.156 175.121 54.88 175.611 54.3887C176.1 53.8973 176.375 53.2309 176.375 52.5361C176.375 51.8412 176.1 51.1748 175.611 50.6835C175.121 50.1921 174.457 49.9161 173.764 49.9161Z" fill="#CCCCCC"/>
<path d="M38.9321 38.2418V49.3367H11.2276C10.5015 49.3621 9.77755 49.2437 9.09707 48.9883C8.41659 48.7329 7.79291 48.3456 7.26164 47.8484C6.73036 47.3512 6.30189 46.7538 6.0007 46.0905C5.6995 45.4271 5.53147 44.7108 5.50621 43.9823C5.48095 43.2537 5.59895 42.5274 5.85347 41.8446C6.10799 41.1619 6.49406 40.5361 6.98961 40.0031C7.48516 39.47 8.08051 39.0401 8.74165 38.7379C9.4028 38.4357 10.1168 38.2672 10.8429 38.2418C10.9711 38.2373 11.0993 38.2373 11.2276 38.2418L38.9321 38.2418Z" fill="#F2F2F2"/>
<path d="M39.6126 49.2514C39.6125 49.3645 39.5677 49.473 39.488 49.553C39.4082 49.6331 39.3001 49.678 39.1873 49.6781H10.7341C9.18949 49.677 7.70849 49.0606 6.61665 47.9643C5.5248 46.8681 4.91147 45.3817 4.91147 43.8319C4.91147 42.2821 5.5248 40.7957 6.61665 39.6995C7.70849 38.6032 9.18949 37.9868 10.7341 37.9857H39.1873C39.2432 37.9856 39.2986 37.9965 39.3504 38.0179C39.4021 38.0393 39.4491 38.0707 39.4887 38.1103C39.5283 38.15 39.5598 38.1971 39.5812 38.2489C39.6026 38.3008 39.6137 38.3563 39.6137 38.4125C39.6137 38.4686 39.6026 38.5242 39.5812 38.576C39.5598 38.6279 39.5283 38.675 39.4887 38.7146C39.4491 38.7543 39.4021 38.7857 39.3504 38.807C39.2986 38.8284 39.2432 38.8393 39.1873 38.8392H10.7341C9.41569 38.8412 8.15193 39.3681 7.22035 40.3042C6.28877 41.2403 5.76553 42.5091 5.76553 43.8319C5.76553 45.1548 6.28877 46.4235 7.22035 47.3596C8.15193 48.2957 9.41569 48.8226 10.7341 48.8246H39.1873C39.3001 48.8247 39.4082 48.8696 39.488 48.9497C39.5677 49.0297 39.6125 49.1382 39.6126 49.2514Z" fill="#16BD9F"/>
<path d="M38.9321 40.8022H9.16047C9.13796 40.8023 9.11634 40.7935 9.10031 40.7776C9.08428 40.7618 9.07516 40.7402 9.07495 40.7176C9.07475 40.695 9.08347 40.6733 9.0992 40.6572C9.11494 40.641 9.1364 40.6318 9.1589 40.6315H38.9321C38.9545 40.6317 38.9759 40.6408 38.9916 40.6568C39.0074 40.6728 39.0163 40.6943 39.0163 40.7168C39.0163 40.7393 39.0074 40.7609 38.9916 40.7769C38.9759 40.7929 38.9545 40.8019 38.9321 40.8022Z" fill="#CCCCCC"/>
<path d="M38.9321 42.8505H9.16047C9.13796 42.8506 9.11634 42.8418 9.10031 42.8259C9.08428 42.8101 9.07516 42.7885 9.07495 42.7659C9.07475 42.7433 9.08347 42.7216 9.0992 42.7054C9.11494 42.6893 9.1364 42.6801 9.1589 42.6798H38.9321C38.9545 42.68 38.9759 42.6891 38.9916 42.7051C39.0074 42.7211 39.0163 42.7426 39.0163 42.7651C39.0163 42.7876 39.0074 42.8092 38.9916 42.8252C38.9759 42.8411 38.9545 42.8502 38.9321 42.8505Z" fill="#CCCCCC"/>
<path d="M38.9321 44.8988H9.16047C9.13796 44.8989 9.11634 44.89 9.10031 44.8742C9.08428 44.8584 9.07516 44.8368 9.07495 44.8142C9.07475 44.7916 9.08347 44.7699 9.0992 44.7537C9.11494 44.7376 9.1364 44.7284 9.1589 44.7281H38.9321C38.9545 44.7283 38.9759 44.7374 38.9916 44.7534C39.0074 44.7694 39.0163 44.7909 39.0163 44.8134C39.0163 44.8359 39.0074 44.8575 38.9916 44.8735C38.9759 44.8894 38.9545 44.8985 38.9321 44.8988Z" fill="#CCCCCC"/>
<path d="M38.9321 46.947H9.16047C9.13796 46.9471 9.11634 46.9383 9.10031 46.9225C9.08428 46.9066 9.07516 46.885 9.07495 46.8625C9.07475 46.8399 9.08347 46.8181 9.0992 46.802C9.11494 46.7859 9.1364 46.7766 9.1589 46.7763H38.9321C38.9545 46.7766 38.9759 46.7856 38.9916 46.8016C39.0074 46.8176 39.0163 46.8392 39.0163 46.8617C39.0163 46.8842 39.0074 46.9057 38.9916 46.9217C38.9759 46.9377 38.9545 46.9468 38.9321 46.947Z" fill="#CCCCCC"/>
<path d="M33.7095 26.5527V37.6476H6.00501C4.53863 37.6988 3.11204 37.1634 2.03908 36.1592C0.966111 35.1551 0.334668 33.7644 0.283653 32.2931C0.232638 30.8218 0.766231 29.3905 1.76705 28.314C2.76787 27.2374 4.15393 26.6039 5.62032 26.5527C5.74851 26.5482 5.87673 26.5482 6.00501 26.5527H33.7095Z" fill="#F2F2F2"/>
<path d="M34.39 37.5622C34.39 37.6754 34.3452 37.7839 34.2654 37.8639C34.1857 37.9439 34.0775 37.9889 33.9647 37.989H5.5116C3.96626 37.989 2.48421 37.373 1.39148 36.2767C0.298759 35.1803 -0.315125 33.6933 -0.315125 32.1428C-0.315125 30.5923 0.298759 29.1053 1.39148 28.0089C2.48421 26.9126 3.96626 26.2966 5.5116 26.2966H33.9647C34.0206 26.2966 34.0759 26.3077 34.1275 26.3291C34.1791 26.3506 34.226 26.382 34.2655 26.4216C34.305 26.4612 34.3363 26.5083 34.3577 26.5601C34.379 26.6118 34.39 26.6673 34.39 26.7234C34.39 26.7794 34.379 26.8349 34.3577 26.8867C34.3363 26.9384 34.305 26.9855 34.2655 27.0251C34.226 27.0647 34.1791 27.0962 34.1275 27.1176C34.0759 27.139 34.0206 27.1501 33.9647 27.1501H5.5116C4.19186 27.1501 2.92616 27.6761 1.99296 28.6124C1.05976 29.5487 0.535493 30.8186 0.535493 32.1428C0.535493 33.4669 1.05976 34.7369 1.99296 35.6732C2.92616 36.6095 4.19186 37.1355 5.5116 37.1355H33.9647C34.0775 37.1356 34.1857 37.1805 34.2654 37.2605C34.3452 37.3406 34.39 37.4491 34.39 37.5622Z" fill="#3F3D56"/>
<path d="M33.7095 29.113H3.93791C3.91541 29.1131 3.89377 29.1043 3.87775 29.0884C3.86172 29.0726 3.8526 29.051 3.85239 29.0284C3.85218 29.0059 3.8609 28.9841 3.87664 28.968C3.89237 28.9518 3.91384 28.9426 3.93634 28.9423H33.7095C33.7319 28.9425 33.7533 28.9516 33.7691 28.9676C33.7849 28.9836 33.7937 29.0052 33.7937 29.0277C33.7937 29.0501 33.7849 29.0717 33.7691 29.0877C33.7533 29.1037 33.7319 29.1128 33.7095 29.113Z" fill="#CCCCCC"/>
<path d="M33.7095 31.1613H3.93791C3.91541 31.1614 3.89377 31.1526 3.87775 31.1368C3.86172 31.1209 3.8526 31.0993 3.85239 31.0768C3.85218 31.0542 3.8609 31.0324 3.87664 31.0163C3.89237 31.0002 3.91384 30.9909 3.93634 30.9906H33.7095C33.7319 30.9909 33.7533 31 33.7691 31.0159C33.7849 31.0319 33.7937 31.0535 33.7937 31.076C33.7937 31.0985 33.7849 31.12 33.7691 31.136C33.7533 31.152 33.7319 31.1611 33.7095 31.1613Z" fill="#CCCCCC"/>
<path d="M33.7095 33.2096H3.93791C3.91541 33.2097 3.89377 33.2009 3.87775 33.1851C3.86172 33.1692 3.8526 33.1476 3.85239 33.1251C3.85218 33.1025 3.8609 33.0808 3.87664 33.0646C3.89237 33.0485 3.91384 33.0392 3.93634 33.0389H33.7095C33.7319 33.0392 33.7533 33.0483 33.7691 33.0642C33.7849 33.0802 33.7937 33.1018 33.7937 33.1243C33.7937 33.1468 33.7849 33.1683 33.7691 33.1843C33.7533 33.2003 33.7319 33.2094 33.7095 33.2096Z" fill="#CCCCCC"/>
<path d="M33.7095 35.2579H3.93791C3.91541 35.258 3.89377 35.2492 3.87775 35.2333C3.86172 35.2175 3.8526 35.1959 3.85239 35.1733C3.85218 35.1507 3.8609 35.129 3.87664 35.1129C3.89237 35.0967 3.91384 35.0875 3.93634 35.0872H33.7095C33.7319 35.0874 33.7533 35.0965 33.7691 35.1125C33.7849 35.1285 33.7937 35.15 33.7937 35.1725C33.7937 35.195 33.7849 35.2166 33.7691 35.2326C33.7533 35.2486 33.7319 35.2576 33.7095 35.2579Z" fill="#CCCCCC"/>
<path d="M65.9383 89.1762V79.5024C65.9383 79.0748 65.7689 78.6647 65.4676 78.3624C65.1662 78.06 64.7575 77.8901 64.3313 77.8901H27.7735C27.3474 77.8901 26.9386 78.06 26.6373 78.3624C26.3359 78.6647 26.1666 79.0748 26.1666 79.5024V89.1762H65.9383Z" fill="#CCCCCC"/>
<path d="M65.9382 92.8039H26.1666V105.299H65.9382V92.8039Z" fill="#CCCCCC"/>
<path d="M26.1666 108.927V118.601C26.1666 119.028 26.3359 119.438 26.6373 119.741C26.9386 120.043 27.3474 120.213 27.7735 120.213H64.3313C64.7575 120.213 65.1662 120.043 65.4676 119.741C65.7689 119.438 65.9383 119.028 65.9383 118.601V108.927H26.1666Z" fill="#CCCCCC"/>
<path d="M45.8516 85.1455C46.5172 85.1455 47.0568 84.6041 47.0568 83.9362C47.0568 83.2684 46.5172 82.727 45.8516 82.727C45.1859 82.727 44.6464 83.2684 44.6464 83.9362C44.6464 84.6041 45.1859 85.1455 45.8516 85.1455Z" fill="white"/>
<path d="M45.8516 101.268C46.5172 101.268 47.0568 100.727 47.0568 100.059C47.0568 99.3914 46.5172 98.85 45.8516 98.85C45.1859 98.85 44.6464 99.3914 44.6464 100.059C44.6464 100.727 45.1859 101.268 45.8516 101.268Z" fill="white"/>
<path d="M45.9161 117.05C46.5818 117.05 47.1213 116.509 47.1213 115.841C47.1213 115.173 46.5818 114.632 45.9161 114.632C45.2505 114.632 44.7109 115.173 44.7109 115.841C44.7109 116.509 45.2505 117.05 45.9161 117.05Z" fill="white"/>
<path d="M61.4292 66.8601V77.955H33.7247C32.2589 78.0051 30.8333 77.4693 29.7612 76.4653C28.689 75.4612 28.0581 74.0711 28.0071 72.6006C27.956 71.13 28.4891 69.6992 29.489 68.6228C30.4889 67.5463 31.874 66.9123 33.3396 66.8601C33.4679 66.8556 33.5963 66.8556 33.7247 66.8601H61.4292Z" fill="#F2F2F2"/>
<path d="M62.1097 77.8696C62.1096 77.9828 62.0648 78.0913 61.9851 78.1713C61.9053 78.2513 61.7972 78.2963 61.6844 78.2964H33.2312C31.6863 78.2967 30.2044 77.6815 29.1114 76.5858C28.0185 75.4902 27.404 74.0039 27.4031 72.4537C27.4021 70.9036 28.0149 69.4165 29.1065 68.3196C30.1981 67.2226 31.6792 66.6055 33.2242 66.604H61.6844C61.7403 66.6039 61.7958 66.6148 61.8475 66.6362C61.8992 66.6576 61.9462 66.689 61.9858 66.7286C62.0254 66.7683 62.0569 66.8154 62.0783 66.8672C62.0998 66.9191 62.1108 66.9746 62.1108 67.0308C62.1108 67.0869 62.0998 67.1425 62.0783 67.1943C62.0569 67.2462 62.0254 67.2933 61.9858 67.3329C61.9462 67.3725 61.8992 67.4039 61.8475 67.4253C61.7958 67.4467 61.7403 67.4576 61.6844 67.4575H33.2312C31.9126 67.4592 30.6486 67.986 29.7168 68.9221C28.785 69.8583 28.2616 71.1272 28.2616 72.4502C28.2616 73.7732 28.785 75.0421 29.7168 75.9783C30.6486 76.9144 31.9126 77.4412 33.2312 77.4429H61.6844C61.7972 77.4429 61.9053 77.4879 61.9851 77.5679C62.0648 77.648 62.1096 77.7565 62.1097 77.8696Z" fill="#3F3D56"/>
<path d="M61.4292 69.4204H31.6576C31.6351 69.4205 31.6135 69.4117 31.5974 69.3959C31.5814 69.38 31.5723 69.3584 31.5721 69.3359C31.5719 69.3133 31.5806 69.2915 31.5963 69.2754C31.6121 69.2592 31.6335 69.25 31.656 69.2497H61.4292C61.4516 69.25 61.473 69.259 61.4888 69.275C61.5046 69.291 61.5134 69.3126 61.5134 69.3351C61.5134 69.3576 61.5046 69.3791 61.4888 69.3951C61.473 69.4111 61.4516 69.4202 61.4292 69.4204Z" fill="#CCCCCC"/>
<path d="M61.4292 71.4687H31.6576C31.6351 71.4689 31.6135 71.46 31.5974 71.4442C31.5814 71.4283 31.5723 71.4068 31.5721 71.3842C31.5719 71.3616 31.5806 71.3399 31.5963 71.3237C31.6121 71.3076 31.6335 71.2983 31.656 71.298H61.4292C61.4516 71.2983 61.473 71.3074 61.4888 71.3234C61.5046 71.3393 61.5134 71.3609 61.5134 71.3834C61.5134 71.4059 61.5046 71.4275 61.4888 71.4434C61.473 71.4594 61.4516 71.4685 61.4292 71.4687Z" fill="#CCCCCC"/>
<path d="M61.4292 73.517H31.6576C31.6351 73.5171 31.6135 73.5083 31.5974 73.4925C31.5814 73.4766 31.5723 73.455 31.5721 73.4325C31.5719 73.4099 31.5806 73.3882 31.5963 73.372C31.6121 73.3559 31.6335 73.3466 31.656 73.3463H61.4292C61.4516 73.3466 61.473 73.3557 61.4888 73.3716C61.5046 73.3876 61.5134 73.4092 61.5134 73.4317C61.5134 73.4542 61.5046 73.4758 61.4888 73.4917C61.473 73.5077 61.4516 73.5168 61.4292 73.517Z" fill="#CCCCCC"/>
<path d="M61.4292 75.5653H31.6576C31.6351 75.5654 31.6135 75.5566 31.5974 75.5407C31.5814 75.5249 31.5723 75.5033 31.5721 75.4807C31.5719 75.4582 31.5806 75.4364 31.5963 75.4203C31.6121 75.4041 31.6335 75.3949 31.656 75.3946H61.4292C61.4516 75.3948 61.473 75.4039 61.4888 75.4199C61.5046 75.4359 61.5134 75.4575 61.5134 75.4799C61.5134 75.5024 61.5046 75.524 61.4888 75.54C61.473 75.556 61.4516 75.5651 61.4292 75.5653Z" fill="#CCCCCC"/>
<path d="M28.8917 22.8514H16.2692C16.1494 22.8513 16.0312 22.8789 15.9238 22.932L12.738 24.5322C12.6331 24.5769 12.5437 24.6516 12.4809 24.7469C12.418 24.8423 12.3845 24.954 12.3845 25.0683C12.3845 25.1826 12.418 25.2944 12.4809 25.3897C12.5437 25.485 12.6331 25.5597 12.738 25.6044L15.9238 27.2046C16.0312 27.2577 16.1494 27.2853 16.2692 27.2852H28.8917C29.0656 27.2953 29.2365 27.2363 29.3674 27.1208C29.4983 27.0054 29.5785 26.8429 29.5908 26.6685V23.4681C29.5785 23.2937 29.4982 23.1312 29.3674 23.0158C29.2365 22.9004 29.0656 22.8413 28.8917 22.8514Z" fill="#3F3D56"/>
<path d="M29.5908 23.4681V26.6685C29.5785 26.8429 29.4983 27.0054 29.3674 27.1208C29.2366 27.2363 29.0657 27.2953 28.8917 27.2852H26.377V22.8514H28.8917C29.0657 22.8413 29.2366 22.9004 29.3674 23.0158C29.4983 23.1313 29.5785 23.2938 29.5908 23.4681Z" fill="#16BD9F"/>
<path d="M100.315 49.6642L98.9819 49.1012L98.0676 42.3979H85.8928L84.9018 49.0738L83.7094 49.6719C83.6524 49.7006 83.6067 49.7477 83.5796 49.8056C83.5526 49.8636 83.5459 49.929 83.5605 49.9913C83.5752 50.0536 83.6104 50.1091 83.6604 50.1488C83.7104 50.1885 83.7723 50.2101 83.8361 50.2101H100.205C100.27 50.2101 100.333 50.1874 100.384 50.1459C100.435 50.1043 100.469 50.0465 100.482 49.9822C100.495 49.918 100.486 49.8512 100.455 49.7932C100.424 49.7352 100.375 49.6896 100.315 49.6642Z" fill="#E6E6E6"/>
<path d="M121.95 43.2897H62.1439C61.8301 43.289 61.5294 43.1635 61.3078 42.9406C61.0861 42.7177 60.9617 42.4157 60.9617 42.1009V33.6393H123.132V42.1009C123.132 42.4157 123.008 42.7177 122.786 42.9406C122.565 43.1635 122.264 43.289 121.95 43.2897Z" fill="#CCCCCC"/>
<path d="M123.195 37.6385H60.9071V1.4331C60.9075 1.05314 61.0582 0.688877 61.3259 0.420213C61.5937 0.151549 61.9568 0.000425145 62.3355 0H121.766C122.145 0.000425138 122.508 0.151549 122.776 0.420213C123.044 0.688877 123.194 1.05314 123.195 1.4331L123.195 37.6385Z" fill="#3F3D56"/>
<path d="M119.475 35.0107H64.6273C64.3353 35.0104 64.0555 34.8939 63.849 34.6867C63.6426 34.4796 63.5265 34.1988 63.5261 33.9059V3.73261C63.5264 3.43968 63.6426 3.15884 63.849 2.9517C64.0554 2.74457 64.3353 2.62805 64.6273 2.62772H119.475C119.767 2.62805 120.047 2.74457 120.253 2.9517C120.459 3.15884 120.576 3.43968 120.576 3.73261V33.9059C120.576 34.1988 120.459 34.4796 120.253 34.6867C120.047 34.8939 119.767 35.0104 119.475 35.0107Z" fill="white"/>
<path d="M105.029 45.6573C105.383 45.3291 105.804 45.0829 106.264 44.9358C106.723 44.7888 107.209 44.7446 107.687 44.8063C108.165 44.868 108.624 45.0341 109.031 45.293C109.438 45.5518 109.784 45.8971 110.044 46.3045L117.462 44.9812L119.363 49.3084L108.86 51.0296C108.149 51.4222 107.32 51.5394 106.528 51.359C105.737 51.1787 105.039 50.7133 104.566 50.0511C104.094 49.3889 103.88 48.5759 103.965 47.7661C104.051 46.9563 104.429 46.2059 105.029 45.6573Z" fill="#FFB6B6"/>
<path d="M111.897 51.1825L119.631 51.0858L120.61 51.0725L136.346 50.8736C136.346 50.8736 140.619 46.7834 144.34 42.5722L143.818 38.7875C143.31 35.0732 141.473 31.6708 138.651 29.2136C133.322 32.7863 130.231 39.8582 130.231 39.8582L120.475 42.1996L119.499 42.4337L113.436 43.8872L111.897 51.1825Z" fill="#16BD9F"/>
<path d="M151.49 74.445H137.053C137.053 75.0657 121.271 75.5694 121.271 75.5694C120.923 75.8324 120.606 76.1342 120.326 76.4689C119.483 77.477 119.023 78.7513 119.025 80.0669V80.9664C119.026 82.4572 119.616 83.8869 120.667 84.9411C121.718 85.9952 123.143 86.5877 124.629 86.5882H151.49C152.975 86.587 154.4 85.9942 155.45 84.9402C156.501 83.8862 157.091 82.457 157.093 80.9664V80.0669C157.091 78.5765 156.5 77.1478 155.449 76.0939C154.399 75.0401 152.975 74.4471 151.49 74.445Z" fill="#E4E4E4"/>
<path d="M140.991 86.3649H135.164V120.113H140.991V86.3649Z" fill="#E4E4E4"/>
<path d="M118.578 119.907C118.578 120.539 127.409 120.152 138.302 120.152C149.194 120.152 158.025 120.539 158.025 119.907C158.025 119.275 149.194 114.266 138.302 114.266C127.409 114.266 118.578 119.275 118.578 119.907Z" fill="#E4E4E4"/>
<path d="M114.664 116.051L110.327 116.051L108.264 99.267L114.665 99.2673L114.664 116.051Z" fill="#FFB6B6"/>
<path d="M115.77 120.269L101.786 120.269V120.091C101.786 118.643 102.36 117.254 103.38 116.23C104.401 115.205 105.785 114.63 107.229 114.63H107.229L115.77 114.63L115.77 120.269Z" fill="#2F2E41"/>
<path d="M101.846 116.051L97.509 116.051L95.4458 99.267L101.847 99.2673L101.846 116.051Z" fill="#FFB6B6"/>
<path d="M102.952 120.269L88.9679 120.269V120.091C88.968 118.643 89.5415 117.254 90.5622 116.23C91.5829 115.205 92.9673 114.63 94.4108 114.63H94.4112L102.952 114.63L102.952 120.269Z" fill="#2F2E41"/>
<path d="M140.695 19.4245C144.86 19.4245 148.236 16.0371 148.236 11.8586C148.236 7.68013 144.86 4.29279 140.695 4.29279C136.53 4.29279 133.154 7.68013 133.154 11.8586C133.154 16.0371 136.53 19.4245 140.695 19.4245Z" fill="#FFB6B6"/>
<path d="M152.899 63.6968C152.899 63.6968 155.43 77.1204 145.803 78.8298C136.176 80.5392 122.28 81.7406 122.28 81.7406L116.039 110.953L107.655 110.202C107.655 110.202 108.77 75.0367 111.512 72.2855C114.254 69.5343 131.585 61.2965 131.585 61.2965L152.899 63.6968Z" fill="#2F2E41"/>
<path d="M134.098 58.0709L129.887 62.3088C129.887 62.3088 99.4868 67.2218 98.314 74.2668C96.5434 84.903 94.452 108.032 94.452 108.032L103.592 107.344L107.176 81.0528L121.801 77.7151L138.439 68.6172L134.098 58.0709Z" fill="#2F2E41"/>
<path d="M147.951 7.34237C147.207 5.93324 146.261 3.12486 144.759 2.60402C143.924 2.32643 143.062 2.14211 142.187 2.0544L139.633 3.03989L141.023 1.95531C140.753 1.93914 140.482 1.92591 140.212 1.91564L138.489 2.58055L139.37 1.89263C137.764 1.87609 136.106 2.04368 134.861 3.02483C133.8 3.86127 132.749 7.02986 132.579 8.37296C132.397 9.65783 132.461 10.9657 132.766 12.2267L133.203 12.643C133.355 12.2918 133.47 11.9253 133.545 11.5496C133.701 10.8477 134.002 10.1862 134.427 9.60724C134.853 9.02829 135.393 8.54459 136.015 8.18696L136.039 8.17353C136.771 7.76026 137.659 7.77931 138.498 7.80962L142.484 7.95353C143.443 7.98816 144.476 8.04904 145.224 8.65259C145.699 9.09782 146.072 9.64086 146.319 10.2445C146.69 10.9968 147.416 13.8344 147.416 13.8344C147.416 13.8344 147.827 13.2987 148.024 13.6974C148.34 12.6573 148.531 11.5833 148.596 10.4979C148.658 9.40771 148.436 8.31994 147.951 7.34237Z" fill="#2F2E41"/>
<path d="M174.325 15.1812C173.844 15.2129 173.376 15.3502 172.953 15.5831C172.531 15.8161 172.165 16.1392 171.88 16.5296C171.596 16.92 171.4 17.3683 171.307 17.8429C171.213 18.3174 171.225 18.8067 171.341 19.2762L165.277 23.7641L167.096 28.1265L175.571 21.6681C176.344 21.4209 177 20.8976 177.415 20.1975C177.829 19.4974 177.973 18.669 177.82 17.8694C177.666 17.0698 177.226 16.3545 176.582 15.8591C175.937 15.3636 175.135 15.1224 174.325 15.1812Z" fill="#FFB6B6"/>
<path d="M173.349 24.3433L158.148 41.2825C158.148 41.2825 150.878 38.9475 145.256 36.4161L142.73 28.6327C142.144 26.827 141.893 24.9285 141.992 23.0319C149.786 20.9511 158.851 28.6937 158.851 28.6937L170.23 19.7508L173.349 24.3433Z" fill="#16BD9F"/>
<path d="M137.878 64.9479C135.166 64.008 132.362 63.036 129.337 62.6712L129.207 62.6554L129.243 62.5292C132.374 51.4981 131.593 44.4416 130.058 33.8418C129.732 31.5554 130.151 29.2244 131.254 27.1968C132.356 25.1691 134.082 23.5536 136.175 22.5912L136.194 22.5828L144.833 22.032L144.853 22.0308L151.136 23.8849C152.04 24.1536 152.831 24.7122 153.388 25.4752C153.945 26.2381 154.238 27.1633 154.221 28.109C154.153 31.595 154.297 35.4869 154.45 39.6073C154.793 48.8512 155.147 58.4098 153.135 64.6117L153.125 64.6442L153.098 64.6654C151.248 66.1767 148.931 66.9934 146.546 66.9745C143.726 66.9745 140.848 65.9771 137.878 64.9479Z" fill="#16BD9F"/>
<path d="M200.616 120.762H-0.0646872C-0.141823 120.762 -0.215799 120.732 -0.270343 120.678C-0.324886 120.625 -0.35553 120.552 -0.35553 120.477C-0.35553 120.401 -0.324886 120.329 -0.270343 120.276C-0.215799 120.222 -0.141823 120.192 -0.0646872 120.192H200.616C200.694 120.192 200.768 120.222 200.822 120.276C200.877 120.329 200.907 120.401 200.907 120.477C200.907 120.552 200.877 120.625 200.822 120.678C200.768 120.732 200.694 120.762 200.616 120.762Z" fill="#CCCCCC"/>
</g>
<defs>
<clipPath id="clip0_362_161">
<rect width="201" height="121" fill="white"/>
</clipPath>
</defs>
</svg>
